<svg class="marks" width="500" height="530" xmlns="http://www.w3.org/2000/svg"><g transform="translate(46,10)"><g id="g24" class="type-group"><g transform="translate(0,0)"><rect class="background" style="pointer-events: none; fill: none; " width="409" height="472"></rect><g id="g25" class="type-group"><g transform="translate(0,472)"><rect class="background" style="pointer-events: none; fill: none; " width="0" height="0"></rect><g id="g26" class="type-rule" style="pointer-events: none; "><line x1="56" y1="-472" x2="56" y2="0" style="fill: none; stroke: #d8d8d8; stroke-width: 1px; opacity: 1; "></line><line x1="155" y1="-472" x2="155" y2="0" style="fill: none; stroke: #d8d8d8; stroke-width: 1px; opacity: 1; "></line><line x1="254" y1="-472" x2="254" y2="0" style="fill: none; stroke: #d8d8d8; stroke-width: 1px; opacity: 1; "></line><line x1="353" y1="-472" x2="353" y2="0" style="fill: none; stroke: #d8d8d8; stroke-width: 1px; opacity: 1; "></line></g><g id="g27" class="type-rule" style="pointer-events: none; "><line x1="56" y1="0" x2="56" y2="6" style="fill: none; stroke: #000000; stroke-width: 1px; opacity: 1; "></line><line x1="155" y1="0" x2="155" y2="6" style="fill: none; stroke: #000000; stroke-width: 1px; opacity: 1; "></line><line x1="254" y1="0" x2="254" y2="6" style="fill: none; stroke: #000000; stroke-width: 1px; opacity: 1; "></line><line x1="353" y1="0" x2="353" y2="6" style="fill: none; stroke: #000000; stroke-width: 1px; opacity: 1; "></line></g><g id="g28" class="type-rule" style="pointer-events: none; "></g><g id="g29" class="type-text"><text x="56" y="9" text-anchor="middle" dy=".9em" style="font: normal normal normal 11px/normal sans-serif; fill: #000000; opacity: 1; ">a</text><text x="155" y="9" text-anchor="middle" dy=".9em" style="font: normal normal normal 11px/normal sans-serif; fill: #000000; opacity: 1; ">b</text><text x="254" y="9" text-anchor="middle" dy=".9em" style="font: normal normal normal 11px/normal sans-serif; fill: #000000; opacity: 1; ">c</text><text x="353" y="9" text-anchor="middle" dy=".9em" style="font: normal normal normal 11px/normal sans-serif; fill: #000000; opacity: 1; ">d</text></g><g id="g30" class="type-path" style="pointer-events: none; "><path transform="translate(0.5,0.5)" d="M0,6V0H409V6" style="fill: none; stroke: #000000; stroke-width: 1px; "></path></g><g id="g31" class="type-text"><text x="204" y="35" text-anchor="middle" dy=".35em" style="font: normal normal bold 11px/normal sans-serif; fill: #000000; ">g1</text></g></g></g><g id="g32" class="type-group"><g transform="translate(0,0)"><rect class="background" style="pointer-events: none; fill: none; " width="0" height="0"></rect><g id="g33" class="type-rule" style="pointer-events: none; "><line x1="0" y1="472.5" x2="409" y2="472.5" style="fill: none; stroke: #d8d8d8; stroke-width: 1px; opacity: 1; "></line><line x1="0" y1="416.67616283931375" x2="409" y2="416.67616283931375" style="fill: none; stroke: #d8d8d8; stroke-width: 1px; opacity: 1; "></line><line x1="0" y1="360.85232567862744" x2="409" y2="360.85232567862744" style="fill: none; stroke: #d8d8d8; stroke-width: 1px; opacity: 1; "></line><line x1="0" y1="305.0284885179412" x2="409" y2="305.0284885179412" style="fill: none; stroke: #d8d8d8; stroke-width: 1px; opacity: 1; "></line><line x1="0" y1="249.2046513572549" x2="409" y2="249.2046513572549" style="fill: none; stroke: #d8d8d8; stroke-width: 1px; opacity: 1; "></line><line x1="0" y1="193.38081419656862" x2="409" y2="193.38081419656862" style="fill: none; stroke: #d8d8d8; stroke-width: 1px; opacity: 1; "></line><line x1="0" y1="137.55697703588237" x2="409" y2="137.55697703588237" style="fill: none; stroke: #d8d8d8; stroke-width: 1px; opacity: 1; "></line><line x1="0" y1="81.73313987519612" x2="409" y2="81.73313987519612" style="fill: none; stroke: #d8d8d8; stroke-width: 1px; opacity: 1; "></line><line x1="0" y1="25.909302714509806" x2="409" y2="25.909302714509806" style="fill: none; stroke: #d8d8d8; stroke-width: 1px; opacity: 1; "></line></g><g id="g34" class="type-rule" style="pointer-events: none; "><line x1="-6" y1="472.5" x2="0" y2="472.5" style="fill: none; stroke: #000000; stroke-width: 1px; opacity: 1; "></line><line x1="-6" y1="416.67616283931375" x2="0" y2="416.67616283931375" style="fill: none; stroke: #000000; stroke-width: 1px; opacity: 1; "></line><line x1="-6" y1="360.85232567862744" x2="0" y2="360.85232567862744" style="fill: none; stroke: #000000; stroke-width: 1px; opacity: 1; "></line><line x1="-6" y1="305.0284885179412" x2="0" y2="305.0284885179412" style="fill: none; stroke: #000000; stroke-width: 1px; opacity: 1; "></line><line x1="-6" y1="249.2046513572549" x2="0" y2="249.2046513572549" style="fill: none; stroke: #000000; stroke-width: 1px; opacity: 1; "></line><line x1="-6" y1="193.38081419656862" x2="0" y2="193.38081419656862" style="fill: none; stroke: #000000; stroke-width: 1px; opacity: 1; "></line><line x1="-6" y1="137.55697703588237" x2="0" y2="137.55697703588237" style="fill: none; stroke: #000000; stroke-width: 1px; opacity: 1; "></line><line x1="-6" y1="81.73313987519612" x2="0" y2="81.73313987519612" style="fill: none; stroke: #000000; stroke-width: 1px; opacity: 1; "></line><line x1="-6" y1="25.909302714509806" x2="0" y2="25.909302714509806" style="fill: none; stroke: #000000; stroke-width: 1px; opacity: 1; "></line></g><g id="g35" class="type-rule" style="pointer-events: none; "></g><g id="g36" class="type-text"><text x="-9" y="472.5" text-anchor="end" dy=".35em" style="font: normal normal normal 11px/normal sans-serif; fill: #000000; opacity: 1; ">0.0</text><text x="-9" y="416.67616283931375" text-anchor="end" dy=".35em" style="font: normal normal normal 11px/normal sans-serif; fill: #000000; opacity: 1; ">0.2</text><text x="-9" y="360.85232567862744" text-anchor="end" dy=".35em" style="font: normal normal normal 11px/normal sans-serif; fill: #000000; opacity: 1; ">0.4</text><text x="-9" y="305.0284885179412" text-anchor="end" dy=".35em" style="font: normal normal normal 11px/normal sans-serif; fill: #000000; opacity: 1; ">0.6</text><text x="-9" y="249.2046513572549" text-anchor="end" dy=".35em" style="font: normal normal normal 11px/normal sans-serif; fill: #000000; opacity: 1; ">0.8</text><text x="-9" y="193.38081419656862" text-anchor="end" dy=".35em" style="font: normal normal normal 11px/normal sans-serif; fill: #000000; opacity: 1; ">1.0</text><text x="-9" y="137.55697703588237" text-anchor="end" dy=".35em" style="font: normal normal normal 11px/normal sans-serif; fill: #000000; opacity: 1; ">1.2</text><text x="-9" y="81.73313987519612" text-anchor="end" dy=".35em" style="font: normal normal normal 11px/normal sans-serif; fill: #000000; opacity: 1; ">1.4</text><text x="-9" y="25.909302714509806" text-anchor="end" dy=".35em" style="font: normal normal normal 11px/normal sans-serif; fill: #000000; opacity: 1; ">1.6</text></g><g id="g37" class="type-path" style="pointer-events: none; "><path transform="translate(0.5,0.5)" d="M-6,0H0V472H-6" style="fill: none; stroke: #000000; stroke-width: 1px; "></path></g><g id="g38" class="type-text"><text x="-35" y="236" text-anchor="middle" transform="rotate(-90 -35,236)" dy=".35em" style="font: normal normal bold 11px/normal sans-serif; fill: #000000; ">value</text></g></g></g><g id="g39" class="type-group"><g transform="translate(0,0)"><rect class="background" width="0" height="0" style="fill: none; "></rect><g id="g40" class="type-rect"><rect x="11" y="356.6818919007392" width="89" height="115.31810809926083" style="fill: #1f77b4; fill-opacity: 0.5; stroke: #000000; "></rect><rect x="110" y="373.9236342651706" width="89" height="98.07636573482938" style="fill: #1f77b4; fill-opacity: 0.5; stroke: #000000; "></rect><rect x="209" y="340.32551011764036" width="89" height="131.67448988235964" style="fill: #1f77b4; fill-opacity: 0.5; stroke: #000000; "></rect><rect x="308" y="324.73258997807386" width="89" height="147.26741002192614" style="fill: #1f77b4; fill-opacity: 0.5; stroke: #000000; "></rect></g></g><g transform="translate(0,0)"><rect class="background" width="0" height="0" style="fill: none; "></rect><g id="g41" class="type-rect"><rect x="11" y="150.23744935658726" width="89" height="206.4444425441519" style="fill: #ff7f0e; fill-opacity: 0.5; stroke: #000000; "></rect><rect x="110" y="244.7006629594318" width="89" height="129.2229713057388" style="fill: #ff7f0e; fill-opacity: 0.5; stroke: #000000; "></rect><rect x="209" y="233.43694697959853" width="89" height="106.88856313804183" style="fill: #ff7f0e; fill-opacity: 0.5; stroke: #000000; "></rect><rect x="308" y="313.6922548810388" width="89" height="11.04033509703504" style="fill: #ff7f0e; fill-opacity: 0.5; stroke: #000000; "></rect></g></g><g transform="translate(0,0)"><rect class="background" width="0" height="0" style="fill: none; "></rect><g id="g42" class="type-rect"><rect x="11" y="22.476190476190993" width="89" height="127.76125888039627" style="fill: #2ca02c; fill-opacity: 0.5; stroke: #000000; "></rect><rect x="110" y="75.93893772334576" width="89" height="168.76172523608605" style="fill: #2ca02c; fill-opacity: 0.5; stroke: #000000; "></rect><rect x="209" y="89.80250592289775" width="89" height="143.63444105670078" style="fill: #2ca02c; fill-opacity: 0.5; stroke: #000000; "></rect><rect x="308" y="67.42646461831623" width="89" height="246.2657902627226" style="fill: #2ca02c; fill-opacity: 0.5; stroke: #000000; "></rect></g></g></g><g id="g43" class="type-group"><g transform="translate(420.5,0.5)"><rect class="background" style="pointer-events: none; fill: none; " width="28" height="61"></rect><g id="g44" class="type-text" style="pointer-events: none; "><text x="3" y="3" text-anchor="start" dy=".9em" style="font: normal normal bold 11px/normal sans-serif; fill: #000000; opacity: 1; ">g2</text></g><g id="g45" class="type-symbol" style="pointer-events: none; "><path transform="translate(7.5,23)" d="M0,3.989422804014327A3.989422804014327,3.989422804014327 0 1,1 0,-3.989422804014327A3.989422804014327,3.989422804014327 0 1,1 0,3.989422804014327Z" style="fill: #1f77b4; stroke: #888888; stroke-width: 1px; opacity: 1; "></path><path transform="translate(7.5,38)" d="M0,3.989422804014327A3.989422804014327,3.989422804014327 0 1,1 0,-3.989422804014327A3.989422804014327,3.989422804014327 0 1,1 0,3.989422804014327Z" style="fill: #ff7f0e; stroke: #888888; stroke-width: 1px; opacity: 1; "></path><path transform="translate(7.5,53)" d="M0,3.989422804014327A3.989422804014327,3.989422804014327 0 1,1 0,-3.989422804014327A3.989422804014327,3.989422804014327 0 1,1 0,3.989422804014327Z" style="fill: #2ca02c; stroke: #888888; stroke-width: 1px; opacity: 1; "></path></g><g id="g46" class="type-text" style="pointer-events: none; "><text x="16" y="23" text-anchor="start" dy=".35em" style="font: normal normal normal 10px/normal sans-serif; fill: #000000; opacity: 1; ">A</text><text x="16" y="38" text-anchor="start" dy=".35em" style="font: normal normal normal 10px/normal sans-serif; fill: #000000; opacity: 1; ">B</text><text x="16" y="53" text-anchor="start" dy=".35em" style="font: normal normal normal 10px/normal sans-serif; fill: #000000; opacity: 1; ">C</text></g></g></g></g></g></g></svg>