<svg class="marks" width="500" height="530" xmlns="http://www.w3.org/2000/svg"><g transform="translate(46,6)"><g id="g18" class="type-group"><g transform="translate(0,0)"><rect class="background" style="pointer-events: none; fill: none; " width="448" height="476"></rect><g id="g19" class="type-group"><g transform="translate(0,476)"><rect class="background" style="pointer-events: none; fill: none; " width="0" height="0"></rect><g id="g20" class="type-rule" style="pointer-events: none; "><line x1="20.863636363636374" y1="-476" x2="20.863636363636374" y2="0" style="fill: none; stroke: #d8d8d8; stroke-width: 1px; opacity: 1; "></line><line x1="66.11616161616163" y1="-476" x2="66.11616161616163" y2="0" style="fill: none; stroke: #d8d8d8; stroke-width: 1px; opacity: 1; "></line><line x1="111.3686868686869" y1="-476" x2="111.3686868686869" y2="0" style="fill: none; stroke: #d8d8d8; stroke-width: 1px; opacity: 1; "></line><line x1="156.62121212121215" y1="-476" x2="156.62121212121215" y2="0" style="fill: none; stroke: #d8d8d8; stroke-width: 1px; opacity: 1; "></line><line x1="201.8737373737374" y1="-476" x2="201.8737373737374" y2="0" style="fill: none; stroke: #d8d8d8; stroke-width: 1px; opacity: 1; "></line><line x1="247.12626262626267" y1="-476" x2="247.12626262626267" y2="0" style="fill: none; stroke: #d8d8d8; stroke-width: 1px; opacity: 1; "></line><line x1="292.37878787878793" y1="-476" x2="292.37878787878793" y2="0" style="fill: none; stroke: #d8d8d8; stroke-width: 1px; opacity: 1; "></line><line x1="337.63131313131316" y1="-476" x2="337.63131313131316" y2="0" style="fill: none; stroke: #d8d8d8; stroke-width: 1px; opacity: 1; "></line><line x1="382.8838383838384" y1="-476" x2="382.8838383838384" y2="0" style="fill: none; stroke: #d8d8d8; stroke-width: 1px; opacity: 1; "></line><line x1="428.1363636363636" y1="-476" x2="428.1363636363636" y2="0" style="fill: none; stroke: #d8d8d8; stroke-width: 1px; opacity: 1; "></line></g><g id="g21" class="type-rule" style="pointer-events: none; "><line x1="20.863636363636374" y1="0" x2="20.863636363636374" y2="6" style="fill: none; stroke: #000000; stroke-width: 1px; opacity: 1; "></line><line x1="66.11616161616163" y1="0" x2="66.11616161616163" y2="6" style="fill: none; stroke: #000000; stroke-width: 1px; opacity: 1; "></line><line x1="111.3686868686869" y1="0" x2="111.3686868686869" y2="6" style="fill: none; stroke: #000000; stroke-width: 1px; opacity: 1; "></line><line x1="156.62121212121215" y1="0" x2="156.62121212121215" y2="6" style="fill: none; stroke: #000000; stroke-width: 1px; opacity: 1; "></line><line x1="201.8737373737374" y1="0" x2="201.8737373737374" y2="6" style="fill: none; stroke: #000000; stroke-width: 1px; opacity: 1; "></line><line x1="247.12626262626267" y1="0" x2="247.12626262626267" y2="6" style="fill: none; stroke: #000000; stroke-width: 1px; opacity: 1; "></line><line x1="292.37878787878793" y1="0" x2="292.37878787878793" y2="6" style="fill: none; stroke: #000000; stroke-width: 1px; opacity: 1; "></line><line x1="337.63131313131316" y1="0" x2="337.63131313131316" y2="6" style="fill: none; stroke: #000000; stroke-width: 1px; opacity: 1; "></line><line x1="382.8838383838384" y1="0" x2="382.8838383838384" y2="6" style="fill: none; stroke: #000000; stroke-width: 1px; opacity: 1; "></line><line x1="428.1363636363636" y1="0" x2="428.1363636363636" y2="6" style="fill: none; stroke: #000000; stroke-width: 1px; opacity: 1; "></line></g><g id="g22" class="type-rule" style="pointer-events: none; "></g><g id="g23" class="type-text"><text x="20.863636363636374" y="9" text-anchor="middle" dy=".9em" style="font: normal normal normal 11px/normal sans-serif; fill: #000000; opacity: 1; ">3</text><text x="66.11616161616163" y="9" text-anchor="middle" dy=".9em" style="font: normal normal normal 11px/normal sans-serif; fill: #000000; opacity: 1; ">4</text><text x="111.3686868686869" y="9" text-anchor="middle" dy=".9em" style="font: normal normal normal 11px/normal sans-serif; fill: #000000; opacity: 1; ">5</text><text x="156.62121212121215" y="9" text-anchor="middle" dy=".9em" style="font: normal normal normal 11px/normal sans-serif; fill: #000000; opacity: 1; ">6</text><text x="201.8737373737374" y="9" text-anchor="middle" dy=".9em" style="font: normal normal normal 11px/normal sans-serif; fill: #000000; opacity: 1; ">7</text><text x="247.12626262626267" y="9" text-anchor="middle" dy=".9em" style="font: normal normal normal 11px/normal sans-serif; fill: #000000; opacity: 1; ">8</text><text x="292.37878787878793" y="9" text-anchor="middle" dy=".9em" style="font: normal normal normal 11px/normal sans-serif; fill: #000000; opacity: 1; ">9</text><text x="337.63131313131316" y="9" text-anchor="middle" dy=".9em" style="font: normal normal normal 11px/normal sans-serif; fill: #000000; opacity: 1; ">10</text><text x="382.8838383838384" y="9" text-anchor="middle" dy=".9em" style="font: normal normal normal 11px/normal sans-serif; fill: #000000; opacity: 1; ">11</text><text x="428.1363636363636" y="9" text-anchor="middle" dy=".9em" style="font: normal normal normal 11px/normal sans-serif; fill: #000000; opacity: 1; ">12</text></g><g id="g24" class="type-path" style="pointer-events: none; "><path transform="translate(0.5,0.5)" d="M0,6V0H448V6" style="fill: none; stroke: #000000; stroke-width: 1px; "></path></g><g id="g25" class="type-text"><text x="224" y="35" text-anchor="middle" dy=".35em" style="font: normal normal bold 11px/normal sans-serif; fill: #000000; ">time</text></g></g></g><g id="g26" class="type-group"><g transform="translate(0,0)"><rect class="background" style="pointer-events: none; fill: none; " width="0" height="0"></rect><g id="g27" class="type-rule" style="pointer-events: none; "><line x1="0" y1="458.1096002973519" x2="448" y2="458.1096002973519" style="fill: none; stroke: #d8d8d8; stroke-width: 1px; opacity: 1; "></line><line x1="0" y1="409.17412688192337" x2="448" y2="409.17412688192337" style="fill: none; stroke: #d8d8d8; stroke-width: 1px; opacity: 1; "></line><line x1="0" y1="360.2386534664949" x2="448" y2="360.2386534664949" style="fill: none; stroke: #d8d8d8; stroke-width: 1px; opacity: 1; "></line><line x1="0" y1="311.3031800510664" x2="448" y2="311.3031800510664" style="fill: none; stroke: #d8d8d8; stroke-width: 1px; opacity: 1; "></line><line x1="0" y1="262.3677066356379" x2="448" y2="262.3677066356379" style="fill: none; stroke: #d8d8d8; stroke-width: 1px; opacity: 1; "></line><line x1="0" y1="213.4322332202094" x2="448" y2="213.4322332202094" style="fill: none; stroke: #d8d8d8; stroke-width: 1px; opacity: 1; "></line><line x1="0" y1="164.49675980478094" x2="448" y2="164.49675980478094" style="fill: none; stroke: #d8d8d8; stroke-width: 1px; opacity: 1; "></line><line x1="0" y1="115.56128638935235" x2="448" y2="115.56128638935235" style="fill: none; stroke: #d8d8d8; stroke-width: 1px; opacity: 1; "></line><line x1="0" y1="66.62581297392387" x2="448" y2="66.62581297392387" style="fill: none; stroke: #d8d8d8; stroke-width: 1px; opacity: 1; "></line><line x1="0" y1="17.690339558495396" x2="448" y2="17.690339558495396" style="fill: none; stroke: #d8d8d8; stroke-width: 1px; opacity: 1; "></line></g><g id="g28" class="type-rule" style="pointer-events: none; "><line x1="-6" y1="458.1096002973519" x2="0" y2="458.1096002973519" style="fill: none; stroke: #000000; stroke-width: 1px; opacity: 1; "></line><line x1="-6" y1="409.17412688192337" x2="0" y2="409.17412688192337" style="fill: none; stroke: #000000; stroke-width: 1px; opacity: 1; "></line><line x1="-6" y1="360.2386534664949" x2="0" y2="360.2386534664949" style="fill: none; stroke: #000000; stroke-width: 1px; opacity: 1; "></line><line x1="-6" y1="311.3031800510664" x2="0" y2="311.3031800510664" style="fill: none; stroke: #000000; stroke-width: 1px; opacity: 1; "></line><line x1="-6" y1="262.3677066356379" x2="0" y2="262.3677066356379" style="fill: none; stroke: #000000; stroke-width: 1px; opacity: 1; "></line><line x1="-6" y1="213.4322332202094" x2="0" y2="213.4322332202094" style="fill: none; stroke: #000000; stroke-width: 1px; opacity: 1; "></line><line x1="-6" y1="164.49675980478094" x2="0" y2="164.49675980478094" style="fill: none; stroke: #000000; stroke-width: 1px; opacity: 1; "></line><line x1="-6" y1="115.56128638935235" x2="0" y2="115.56128638935235" style="fill: none; stroke: #000000; stroke-width: 1px; opacity: 1; "></line><line x1="-6" y1="66.62581297392387" x2="0" y2="66.62581297392387" style="fill: none; stroke: #000000; stroke-width: 1px; opacity: 1; "></line><line x1="-6" y1="17.690339558495396" x2="0" y2="17.690339558495396" style="fill: none; stroke: #000000; stroke-width: 1px; opacity: 1; "></line></g><g id="g29" class="type-rule" style="pointer-events: none; "></g><g id="g30" class="type-text"><text x="-9" y="458.1096002973519" text-anchor="end" dy=".35em" style="font: normal normal normal 11px/normal sans-serif; fill: #000000; opacity: 1; ">0.1</text><text x="-9" y="409.17412688192337" text-anchor="end" dy=".35em" style="font: normal normal normal 11px/normal sans-serif; fill: #000000; opacity: 1; ">0.2</text><text x="-9" y="360.2386534664949" text-anchor="end" dy=".35em" style="font: normal normal normal 11px/normal sans-serif; fill: #000000; opacity: 1; ">0.3</text><text x="-9" y="311.3031800510664" text-anchor="end" dy=".35em" style="font: normal normal normal 11px/normal sans-serif; fill: #000000; opacity: 1; ">0.4</text><text x="-9" y="262.3677066356379" text-anchor="end" dy=".35em" style="font: normal normal normal 11px/normal sans-serif; fill: #000000; opacity: 1; ">0.5</text><text x="-9" y="213.4322332202094" text-anchor="end" dy=".35em" style="font: normal normal normal 11px/normal sans-serif; fill: #000000; opacity: 1; ">0.6</text><text x="-9" y="164.49675980478094" text-anchor="end" dy=".35em" style="font: normal normal normal 11px/normal sans-serif; fill: #000000; opacity: 1; ">0.7</text><text x="-9" y="115.56128638935235" text-anchor="end" dy=".35em" style="font: normal normal normal 11px/normal sans-serif; fill: #000000; opacity: 1; ">0.8</text><text x="-9" y="66.62581297392387" text-anchor="end" dy=".35em" style="font: normal normal normal 11px/normal sans-serif; fill: #000000; opacity: 1; ">0.9</text><text x="-9" y="17.690339558495396" text-anchor="end" dy=".35em" style="font: normal normal normal 11px/normal sans-serif; fill: #000000; opacity: 1; ">1.0</text></g><g id="g31" class="type-path" style="pointer-events: none; "><path transform="translate(0.5,0.5)" d="M-6,0H0V476H-6" style="fill: none; stroke: #000000; stroke-width: 1px; "></path></g><g id="g32" class="type-text"><text x="-35" y="238" text-anchor="middle" transform="rotate(-90 -35,238)" dy=".35em" style="font: normal normal bold 11px/normal sans-serif; fill: #000000; ">value</text></g></g></g><g id="g33" class="type-symbol"><path transform="translate(20.363636363636374,386.11066259626995)" d="M0,3.989422804014327A3.989422804014327,3.989422804014327 0 1,1 0,-3.989422804014327A3.989422804014327,3.989422804014327 0 1,1 0,3.989422804014327Z" style="fill: #000000; "></path><path transform="translate(65.61616161616163,375.3719215642146)" d="M0,3.989422804014327A3.989422804014327,3.989422804014327 0 1,1 0,-3.989422804014327A3.989422804014327,3.989422804014327 0 1,1 0,3.989422804014327Z" style="fill: #000000; "></path><path transform="translate(110.8686868686869,21.63636363636249)" d="M0,3.989422804014327A3.989422804014327,3.989422804014327 0 1,1 0,-3.989422804014327A3.989422804014327,3.989422804014327 0 1,1 0,3.989422804014327Z" style="fill: #000000; "></path><path transform="translate(156.12121212121215,385.4318744443914)" d="M0,3.989422804014327A3.989422804014327,3.989422804014327 0 1,1 0,-3.989422804014327A3.989422804014327,3.989422804014327 0 1,1 0,3.989422804014327Z" style="fill: #000000; "></path><path transform="translate(201.3737373737374,103.87558525576912)" d="M0,3.989422804014327A3.989422804014327,3.989422804014327 0 1,1 0,-3.989422804014327A3.989422804014327,3.989422804014327 0 1,1 0,3.989422804014327Z" style="fill: #000000; "></path><path transform="translate(246.62626262626267,454.36363636363626)" d="M0,3.989422804014327A3.989422804014327,3.989422804014327 0 1,1 0,-3.989422804014327A3.989422804014327,3.989422804014327 0 1,1 0,3.989422804014327Z" style="fill: #000000; "></path><path transform="translate(291.87878787878793,183.21796658017138)" d="M0,3.989422804014327A3.989422804014327,3.989422804014327 0 1,1 0,-3.989422804014327A3.989422804014327,3.989422804014327 0 1,1 0,3.989422804014327Z" style="fill: #000000; "></path><path transform="translate(337.13131313131316,415.89963149724065)" d="M0,3.989422804014327A3.989422804014327,3.989422804014327 0 1,1 0,-3.989422804014327A3.989422804014327,3.989422804014327 0 1,1 0,3.989422804014327Z" style="fill: #000000; "></path><path transform="translate(382.3838383838384,412.98804801107167)" d="M0,3.989422804014327A3.989422804014327,3.989422804014327 0 1,1 0,-3.989422804014327A3.989422804014327,3.989422804014327 0 1,1 0,3.989422804014327Z" style="fill: #000000; "></path><path transform="translate(427.6363636363636,155.61639353716328)" d="M0,3.989422804014327A3.989422804014327,3.989422804014327 0 1,1 0,-3.989422804014327A3.989422804014327,3.989422804014327 0 1,1 0,3.989422804014327Z" style="fill: #000000; "></path></g><g id="g34" class="type-line"><path d="M20.363636363636374,386.11066259626995L65.61616161616163,375.3719215642146L110.8686868686869,21.63636363636249L156.12121212121215,385.4318744443914L201.3737373737374,103.87558525576912L246.62626262626267,454.36363636363626L291.87878787878793,183.21796658017138L337.13131313131316,415.89963149724065L382.3838383838384,412.98804801107167L427.6363636363636,155.61639353716328" style="fill: none; stroke: #000000; "></path></g></g></g></g></svg>