<?xml version="1.0" encoding="UTF-8" standalone="no"?>
<!-- Created with Inkscape (http://www.inkscape.org/) -->

<svg
   xmlns:dc="http://purl.org/dc/elements/1.1/"
   xmlns:cc="http://creativecommons.org/ns#"
   xmlns:rdf="http://www.w3.org/1999/02/22-rdf-syntax-ns#"
   xmlns:svg="http://www.w3.org/2000/svg"
   xmlns="http://www.w3.org/2000/svg"
   xmlns:sodipodi="http://sodipodi.sourceforge.net/DTD/sodipodi-0.dtd"
   xmlns:inkscape="http://www.inkscape.org/namespaces/inkscape"
   width="405.71298"
   height="405.69064"
   id="svg3554"
   version="1.1"
   inkscape:version="0.48.5 r10040"
   sodipodi:docname="New document 9">
  <defs
     id="defs3556" />
  <sodipodi:namedview
     id="base"
     pagecolor="#ffffff"
     bordercolor="#666666"
     borderopacity="1.0"
     inkscape:pageopacity="0.0"
     inkscape:pageshadow="2"
     inkscape:zoom="0.98994949"
     inkscape:cx="137.44511"
     inkscape:cy="186.91271"
     inkscape:document-units="px"
     inkscape:current-layer="layer1"
     showgrid="false"
     fit-margin-top="0"
     fit-margin-left="0"
     fit-margin-right="0"
     fit-margin-bottom="0"
     inkscape:window-width="1366"
     inkscape:window-height="702"
     inkscape:window-x="0"
     inkscape:window-y="27"
     inkscape:window-maximized="1" />
  <metadata
     id="metadata3559">
    <rdf:RDF>
      <cc:Work
         rdf:about="">
        <dc:format>image/svg+xml</dc:format>
        <dc:type
           rdf:resource="http://purl.org/dc/dcmitype/StillImage" />
        <dc:title></dc:title>
      </cc:Work>
    </rdf:RDF>
  </metadata>
  <g
     inkscape:label="Layer 1"
     inkscape:groupmode="layer"
     id="layer1"
     transform="translate(-177.14288,-252.37186)">
    <path
       inkscape:connector-curvature="0"
       d="m 582.5,657.71932 -405,0 0,-404.99999 405,0 0,404.99999 z m -405,0 z"
       style="fill:#cccccc;fill-opacity:1;fill-rule:nonzero;stroke:#bebebe;stroke-width:0.70249999;stroke-linecap:round;stroke-linejoin:round;stroke-miterlimit:10;stroke-opacity:1;stroke-dasharray:none"
       id="path3154" />
    <g
       id="g3156"
       transform="matrix(1.25,0,0,-1.25,177.5,272.96932)">
      <path
         inkscape:connector-curvature="0"
         d="M 0,0 324,0"
         style="fill:none;stroke:#000000;stroke-width:0.56199998;stroke-linecap:round;stroke-linejoin:round;stroke-miterlimit:10;stroke-opacity:1;stroke-dasharray:none"
         id="path3158" />
    </g>
    <g
       id="g3160"
       transform="matrix(1.25,0,0,-1.25,185.34625,271.58182)">
      <path
         inkscape:connector-curvature="0"
         d="M 0,0 -6.277,-1.11 0,-2.22 0,0 z"
         style="fill:#000000;fill-opacity:1;fill-rule:nonzero;stroke:#000000;stroke-width:0.56199998;stroke-linecap:round;stroke-linejoin:round;stroke-miterlimit:10;stroke-opacity:1;stroke-dasharray:none"
         id="path3162" />
    </g>
    <g
       id="g3164"
       transform="matrix(1.25,0,0,-1.25,574.6525,274.35682)">
      <path
         inkscape:connector-curvature="0"
         d="M 0,0 6.278,1.11 0,2.22 0,0 z"
         style="fill:#000000;fill-opacity:1;fill-rule:nonzero;stroke:#000000;stroke-width:0.56199998;stroke-linecap:round;stroke-linejoin:round;stroke-miterlimit:10;stroke-opacity:1;stroke-dasharray:none"
         id="path3166" />
    </g>
    <text
       style="font-size:15px"
       y="266.21933"
       x="359.74976"
       id="text3168">
      <tspan
         style="font-size:11.25px;font-variant:normal;font-weight:normal;writing-mode:lr-tb;fill:#000000;fill-opacity:1;fill-rule:nonzero;stroke:none;font-family:Courier 10 Pitch;-inkscape-font-specification:Courier"
         x="359.74976 366.49976 373.24976 379.99976 386.74976 393.49976"
         y="266.21933"
         sodipodi:role="line"
         id="tspan3170">din[1]</tspan>
    </text>
    <g
       id="g3172"
       transform="matrix(1.25,0,0,-1.25,177.5,374.21932)">
      <path
         inkscape:connector-curvature="0"
         d="M 0,0 32.4,0"
         style="fill:none;stroke:#000000;stroke-width:0.56199998;stroke-linecap:round;stroke-linejoin:round;stroke-miterlimit:10;stroke-opacity:1;stroke-dasharray:none"
         id="path3174" />
    </g>
    <g
       id="g3176"
       transform="matrix(1.25,0,0,-1.25,185.34625,372.83182)">
      <path
         inkscape:connector-curvature="0"
         d="M 0,0 -6.277,-1.11 0,-2.22 0,0 z"
         style="fill:#000000;fill-opacity:1;fill-rule:nonzero;stroke:#000000;stroke-width:0.56199998;stroke-linecap:round;stroke-linejoin:round;stroke-miterlimit:10;stroke-opacity:1;stroke-dasharray:none"
         id="path3178" />
    </g>
    <g
       id="g3180"
       transform="matrix(1.25,0,0,-1.25,210.1525,375.60682)">
      <path
         inkscape:connector-curvature="0"
         d="M 0,0 6.278,1.11 0,2.22 0,0 z"
         style="fill:#000000;fill-opacity:1;fill-rule:nonzero;stroke:#000000;stroke-width:0.56199998;stroke-linecap:round;stroke-linejoin:round;stroke-miterlimit:10;stroke-opacity:1;stroke-dasharray:none"
         id="path3182" />
    </g>
    <text
       style="font-size:15px"
       y="387.28806"
       x="177.49976"
       id="text3184">
      <tspan
         style="font-size:11.25px;font-variant:normal;font-weight:normal;writing-mode:lr-tb;fill:#000000;fill-opacity:1;fill-rule:nonzero;stroke:none;font-family:Courier 10 Pitch;-inkscape-font-specification:Courier"
         x="177.49976 184.24976 190.99976 197.74976 204.49976 211.24976"
         y="387.28806"
         sodipodi:role="line"
         id="tspan3186">omi[2]</tspan>
      <tspan
         style="font-size:11.25px;font-variant:normal;font-weight:normal;writing-mode:lr-tb;fill:#000000;fill-opacity:1;fill-rule:nonzero;stroke:none;font-family:Courier 10 Pitch;-inkscape-font-specification:Courier"
         x="177.49976 184.24976 190.99976 197.74976 204.49976 211.24976"
         y="367.46558"
         sodipodi:role="line"
         id="tspan3188">oma[2]</tspan>
    </text>
    <g
       id="g3190"
       transform="matrix(1.25,0,0,-1.25,582.5,374.21932)">
      <path
         inkscape:connector-curvature="0"
         d="M 0,0 -32.4,0"
         style="fill:none;stroke:#000000;stroke-width:0.56199998;stroke-linecap:round;stroke-linejoin:round;stroke-miterlimit:10;stroke-opacity:1;stroke-dasharray:none"
         id="path3192" />
    </g>
    <g
       id="g3194"
       transform="matrix(1.25,0,0,-1.25,574.6525,375.60682)">
      <path
         inkscape:connector-curvature="0"
         d="M 0,0 6.278,1.11 0,2.22 0,0 z"
         style="fill:#000000;fill-opacity:1;fill-rule:nonzero;stroke:#000000;stroke-width:0.56199998;stroke-linecap:round;stroke-linejoin:round;stroke-miterlimit:10;stroke-opacity:1;stroke-dasharray:none"
         id="path3196" />
    </g>
    <g
       id="g3198"
       transform="matrix(1.25,0,0,-1.25,549.84624,372.83182)">
      <path
         inkscape:connector-curvature="0"
         d="M 0,0 -6.277,-1.11 0,-2.22 0,0 z"
         style="fill:#000000;fill-opacity:1;fill-rule:nonzero;stroke:#000000;stroke-width:0.56199998;stroke-linecap:round;stroke-linejoin:round;stroke-miterlimit:10;stroke-opacity:1;stroke-dasharray:none"
         id="path3200" />
    </g>
    <text
       style="font-size:15px"
       y="387.28806"
       x="541.99976"
       id="text3202">
      <tspan
         style="font-size:11.25px;font-variant:normal;font-weight:normal;writing-mode:lr-tb;fill:#000000;fill-opacity:1;fill-rule:nonzero;stroke:none;font-family:Courier 10 Pitch;-inkscape-font-specification:Courier"
         x="541.99976 548.74976 555.49976 562.24976 568.99976 575.74976"
         y="387.28806"
         sodipodi:role="line"
         id="tspan3204">omi[4]</tspan>
      <tspan
         style="font-size:11.25px;font-variant:normal;font-weight:normal;writing-mode:lr-tb;fill:#000000;fill-opacity:1;fill-rule:nonzero;stroke:none;font-family:Courier 10 Pitch;-inkscape-font-specification:Courier"
         x="541.99976 548.74976 555.49976 562.24976 568.99976 575.74976"
         y="367.46558"
         sodipodi:role="line"
         id="tspan3206">oma[4]</tspan>
    </text>
    <g
       id="g3208"
       transform="matrix(1.25,0,0,-1.25,177.5,536.21932)">
      <path
         inkscape:connector-curvature="0"
         d="M 0,0 32.4,0"
         style="fill:none;stroke:#000000;stroke-width:0.56199998;stroke-linecap:round;stroke-linejoin:round;stroke-miterlimit:10;stroke-opacity:1;stroke-dasharray:none"
         id="path3210" />
    </g>
    <g
       id="g3212"
       transform="matrix(1.25,0,0,-1.25,185.34625,534.83182)">
      <path
         inkscape:connector-curvature="0"
         d="M 0,0 -6.277,-1.11 0,-2.22 0,0 z"
         style="fill:#000000;fill-opacity:1;fill-rule:nonzero;stroke:#000000;stroke-width:0.56199998;stroke-linecap:round;stroke-linejoin:round;stroke-miterlimit:10;stroke-opacity:1;stroke-dasharray:none"
         id="path3214" />
    </g>
    <g
       id="g3216"
       transform="matrix(1.25,0,0,-1.25,210.1525,537.60682)">
      <path
         inkscape:connector-curvature="0"
         d="M 0,0 6.278,1.11 0,2.22 0,0 z"
         style="fill:#000000;fill-opacity:1;fill-rule:nonzero;stroke:#000000;stroke-width:0.56199998;stroke-linecap:round;stroke-linejoin:round;stroke-miterlimit:10;stroke-opacity:1;stroke-dasharray:none"
         id="path3218" />
    </g>
    <text
       style="font-size:15px"
       y="549.28809"
       x="177.49976"
       id="text3220">
      <tspan
         style="font-size:11.25px;font-variant:normal;font-weight:normal;writing-mode:lr-tb;fill:#000000;fill-opacity:1;fill-rule:nonzero;stroke:none;font-family:Courier 10 Pitch;-inkscape-font-specification:Courier"
         x="177.49976 184.24976 190.99976 197.74976 204.49976 211.24976"
         y="549.28809"
         sodipodi:role="line"
         id="tspan3222">omd[1]</tspan>
    </text>
    <g
       id="g3224"
       transform="matrix(1.25,0,0,-1.25,177.5,630.71931)">
      <path
         inkscape:connector-curvature="0"
         d="M 0,0 291.6,0"
         style="fill:none;stroke:#000000;stroke-width:0.56199998;stroke-linecap:round;stroke-linejoin:round;stroke-miterlimit:10;stroke-opacity:1;stroke-dasharray:none"
         id="path3226" />
    </g>
    <g
       id="g3228"
       transform="matrix(1.25,0,0,-1.25,185.34625,629.33181)">
      <path
         inkscape:connector-curvature="0"
         d="M 0,0 -6.277,-1.11 0,-2.22 0,0 z"
         style="fill:#000000;fill-opacity:1;fill-rule:nonzero;stroke:#000000;stroke-width:0.56199998;stroke-linecap:round;stroke-linejoin:round;stroke-miterlimit:10;stroke-opacity:1;stroke-dasharray:none"
         id="path3230" />
    </g>
    <g
       id="g3232"
       transform="matrix(1.25,0,0,-1.25,534.15374,632.10682)">
      <path
         inkscape:connector-curvature="0"
         d="M 0,0 6.277,1.11 0,2.22 0,0 z"
         style="fill:#000000;fill-opacity:1;fill-rule:nonzero;stroke:#000000;stroke-width:0.56199998;stroke-linecap:round;stroke-linejoin:round;stroke-miterlimit:10;stroke-opacity:1;stroke-dasharray:none"
         id="path3234" />
    </g>
    <text
       style="font-size:15px"
       y="643.78809"
       x="339.49976"
       id="text3236">
      <tspan
         style="font-size:11.25px;font-variant:normal;font-weight:normal;writing-mode:lr-tb;fill:#000000;fill-opacity:1;fill-rule:nonzero;stroke:none;font-family:Courier 10 Pitch;-inkscape-font-specification:Courier"
         x="339.49976 346.24976 352.99976 359.74976 366.49976 373.24976"
         y="643.78809"
         sodipodi:role="line"
         id="tspan3238">omd[2]</tspan>
    </text>
    <path
       inkscape:connector-curvature="0"
       d="m 542,617.21932 -324,0 0,-324 324,0 0,324 z m -324,0 z"
       style="fill:#e5e5e5;fill-opacity:1;fill-rule:nonzero;stroke:#000000;stroke-width:0.70249999;stroke-linecap:round;stroke-linejoin:round;stroke-miterlimit:10;stroke-opacity:1;stroke-dasharray:none"
       id="path3240" />
    <g
       id="g3242"
       transform="matrix(1.25,0,0,-1.25,218,313.46933)">
      <path
         inkscape:connector-curvature="0"
         d="M 0,0 259.2,0"
         style="fill:none;stroke:#000000;stroke-width:0.56199998;stroke-linecap:round;stroke-linejoin:round;stroke-miterlimit:10;stroke-opacity:1;stroke-dasharray:none"
         id="path3244" />
    </g>
    <g
       id="g3246"
       transform="matrix(1.25,0,0,-1.25,225.84625,312.08183)">
      <path
         inkscape:connector-curvature="0"
         d="M 0,0 -6.277,-1.11 0,-2.22 0,0 z"
         style="fill:#000000;fill-opacity:1;fill-rule:nonzero;stroke:#000000;stroke-width:0.56199998;stroke-linecap:round;stroke-linejoin:round;stroke-miterlimit:10;stroke-opacity:1;stroke-dasharray:none"
         id="path3248" />
    </g>
    <g
       id="g3250"
       transform="matrix(1.25,0,0,-1.25,534.15374,314.85683)">
      <path
         inkscape:connector-curvature="0"
         d="M 0,0 6.277,1.11 0,2.22 0,0 z"
         style="fill:#000000;fill-opacity:1;fill-rule:nonzero;stroke:#000000;stroke-width:0.56199998;stroke-linecap:round;stroke-linejoin:round;stroke-miterlimit:10;stroke-opacity:1;stroke-dasharray:none"
         id="path3252" />
    </g>
    <text
       style="font-size:15px"
       y="306.71933"
       x="359.74976"
       id="text3254">
      <tspan
         style="font-size:11.25px;font-variant:normal;font-weight:normal;writing-mode:lr-tb;fill:#000000;fill-opacity:1;fill-rule:nonzero;stroke:none;font-family:Courier 10 Pitch;-inkscape-font-specification:Courier"
         x="359.74976 366.49976 373.24976 379.99976 386.74976 393.49976"
         y="306.71933"
         sodipodi:role="line"
         id="tspan3256">fin[1]</tspan>
    </text>
    <g
       id="g3258"
       transform="matrix(1.25,0,0,-1.25,218,422.81932)">
      <path
         inkscape:connector-curvature="0"
         d="M 0,0 44.28,0"
         style="fill:none;stroke:#000000;stroke-width:0.56199998;stroke-linecap:round;stroke-linejoin:round;stroke-miterlimit:10;stroke-opacity:1;stroke-dasharray:none"
         id="path3260" />
    </g>
    <g
       id="g3262"
       transform="matrix(1.25,0,0,-1.25,225.84625,421.43182)">
      <path
         inkscape:connector-curvature="0"
         d="M 0,0 -6.277,-1.11 0,-2.22 0,0 z"
         style="fill:#000000;fill-opacity:1;fill-rule:nonzero;stroke:#000000;stroke-width:0.56199998;stroke-linecap:round;stroke-linejoin:round;stroke-miterlimit:10;stroke-opacity:1;stroke-dasharray:none"
         id="path3264" />
    </g>
    <g
       id="g3266"
       transform="matrix(1.25,0,0,-1.25,265.5025,424.20682)">
      <path
         inkscape:connector-curvature="0"
         d="M 0,0 6.278,1.11 0,2.22 0,0 z"
         style="fill:#000000;fill-opacity:1;fill-rule:nonzero;stroke:#000000;stroke-width:0.56199998;stroke-linecap:round;stroke-linejoin:round;stroke-miterlimit:10;stroke-opacity:1;stroke-dasharray:none"
         id="path3268" />
    </g>
    <text
       style="font-size:15px"
       y="435.88809"
       x="225.42476"
       id="text3270">
      <tspan
         style="font-size:11.25px;font-variant:normal;font-weight:normal;writing-mode:lr-tb;fill:#000000;fill-opacity:1;fill-rule:nonzero;stroke:none;font-family:Courier 10 Pitch;-inkscape-font-specification:Courier"
         x="225.42476 232.17476 238.92476 245.67476 252.42476 259.17474"
         y="435.88809"
         sodipodi:role="line"
         id="tspan3272">mai[2]</tspan>
      <tspan
         style="font-size:11.25px;font-variant:normal;font-weight:normal;writing-mode:lr-tb;fill:#000000;fill-opacity:1;fill-rule:nonzero;stroke:none;font-family:Courier 10 Pitch;-inkscape-font-specification:Courier"
         x="225.42476 232.17476 238.92476 245.67476 252.42476 259.17474"
         y="416.06555"
         sodipodi:role="line"
         id="tspan3274">mar[2]</tspan>
    </text>
    <g
       id="g3276"
       transform="matrix(1.25,0,0,-1.25,542,422.81932)">
      <path
         inkscape:connector-curvature="0"
         d="M 0,0 -22.68,0"
         style="fill:none;stroke:#000000;stroke-width:0.56199998;stroke-linecap:round;stroke-linejoin:round;stroke-miterlimit:10;stroke-opacity:1;stroke-dasharray:none"
         id="path3278" />
    </g>
    <g
       id="g3280"
       transform="matrix(1.25,0,0,-1.25,534.15374,424.20682)">
      <path
         inkscape:connector-curvature="0"
         d="M 0,0 6.277,1.11 0,2.22 0,0 z"
         style="fill:#000000;fill-opacity:1;fill-rule:nonzero;stroke:#000000;stroke-width:0.56199998;stroke-linecap:round;stroke-linejoin:round;stroke-miterlimit:10;stroke-opacity:1;stroke-dasharray:none"
         id="path3282" />
    </g>
    <g
       id="g3284"
       transform="matrix(1.25,0,0,-1.25,521.49749,421.43182)">
      <path
         inkscape:connector-curvature="0"
         d="M 0,0 -6.278,-1.11 0,-2.22 0,0 z"
         style="fill:#000000;fill-opacity:1;fill-rule:nonzero;stroke:#000000;stroke-width:0.56199998;stroke-linecap:round;stroke-linejoin:round;stroke-miterlimit:10;stroke-opacity:1;stroke-dasharray:none"
         id="path3286" />
    </g>
    <text
       style="font-size:15px"
       y="530.98438"
       x="-470.0697"
       transform="matrix(0,-1,1,0,0,0)"
       id="text3288">
      <tspan
         style="font-size:11.25px;font-variant:normal;font-weight:normal;writing-mode:lr-tb;fill:#000000;fill-opacity:1;fill-rule:nonzero;stroke:none;font-family:Courier 10 Pitch;-inkscape-font-specification:Courier"
         x="-470.0697 -463.3197 -456.5697 -449.8197 -443.0697 -436.3197 -416.0697 -409.3197 -402.5697 -395.8197 -389.0697 -382.3197"
         y="530.98438"
         sodipodi:role="line"
         id="tspan3290">mai[4]mar[4]</tspan>
    </text>
    <g
       id="g3292"
       transform="matrix(1.25,0,0,-1.25,218,487.61932)">
      <path
         inkscape:connector-curvature="0"
         d="M 0,0 44.28,0"
         style="fill:none;stroke:#000000;stroke-width:0.56199998;stroke-linecap:round;stroke-linejoin:round;stroke-miterlimit:10;stroke-opacity:1;stroke-dasharray:none"
         id="path3294" />
    </g>
    <g
       id="g3296"
       transform="matrix(1.25,0,0,-1.25,225.84625,486.23182)">
      <path
         inkscape:connector-curvature="0"
         d="M 0,0 -6.277,-1.11 0,-2.22 0,0 z"
         style="fill:#000000;fill-opacity:1;fill-rule:nonzero;stroke:#000000;stroke-width:0.56199998;stroke-linecap:round;stroke-linejoin:round;stroke-miterlimit:10;stroke-opacity:1;stroke-dasharray:none"
         id="path3298" />
    </g>
    <g
       id="g3300"
       transform="matrix(1.25,0,0,-1.25,265.5025,489.00682)">
      <path
         inkscape:connector-curvature="0"
         d="M 0,0 6.278,1.11 0,2.22 0,0 z"
         style="fill:#000000;fill-opacity:1;fill-rule:nonzero;stroke:#000000;stroke-width:0.56199998;stroke-linecap:round;stroke-linejoin:round;stroke-miterlimit:10;stroke-opacity:1;stroke-dasharray:none"
         id="path3302" />
    </g>
    <text
       style="font-size:15px"
       y="500.68808"
       x="225.42476"
       id="text3304">
      <tspan
         style="font-size:11.25px;font-variant:normal;font-weight:normal;writing-mode:lr-tb;fill:#000000;fill-opacity:1;fill-rule:nonzero;stroke:none;font-family:Courier 10 Pitch;-inkscape-font-specification:Courier"
         x="225.42476 232.17476 238.92476 245.67476 252.42476 259.17474"
         y="500.68808"
         sodipodi:role="line"
         id="tspan3306">plt[1]</tspan>
    </text>
    <g
       id="g3308"
       transform="matrix(1.25,0,0,-1.25,218,563.21931)">
      <path
         inkscape:connector-curvature="0"
         d="M 0,0 236.52,0"
         style="fill:none;stroke:#000000;stroke-width:0.56199998;stroke-linecap:round;stroke-linejoin:round;stroke-miterlimit:10;stroke-opacity:1;stroke-dasharray:none"
         id="path3310" />
    </g>
    <g
       id="g3312"
       transform="matrix(1.25,0,0,-1.25,225.84625,561.83181)">
      <path
         inkscape:connector-curvature="0"
         d="M 0,0 -6.277,-1.11 0,-2.22 0,0 z"
         style="fill:#000000;fill-opacity:1;fill-rule:nonzero;stroke:#000000;stroke-width:0.56199998;stroke-linecap:round;stroke-linejoin:round;stroke-miterlimit:10;stroke-opacity:1;stroke-dasharray:none"
         id="path3314" />
    </g>
    <g
       id="g3316"
       transform="matrix(1.25,0,0,-1.25,505.80375,564.60682)">
      <path
         inkscape:connector-curvature="0"
         d="M 0,0 6.277,1.11 0,2.22 0,0 z"
         style="fill:#000000;fill-opacity:1;fill-rule:nonzero;stroke:#000000;stroke-width:0.56199998;stroke-linecap:round;stroke-linejoin:round;stroke-miterlimit:10;stroke-opacity:1;stroke-dasharray:none"
         id="path3318" />
    </g>
    <text
       style="font-size:15px"
       y="576.28809"
       x="345.57474"
       id="text3320">
      <tspan
         style="font-size:11.25px;font-variant:normal;font-weight:normal;writing-mode:lr-tb;fill:#000000;fill-opacity:1;fill-rule:nonzero;stroke:none;font-family:Courier 10 Pitch;-inkscape-font-specification:Courier"
         x="345.57474 352.32474 359.07474 365.82474 372.57474 379.32474"
         y="576.28809"
         sodipodi:role="line"
         id="tspan3322">plt[2]</tspan>
    </text>
    <path
       inkscape:connector-curvature="0"
       d="m 513.65,548.36932 -240.3,0 0,-199.8 240.3,0 0,199.8 z m -240.3,0 z"
       style="fill:#cccccc;fill-opacity:1;fill-rule:nonzero;stroke:#000000;stroke-width:0.70249999;stroke-linecap:round;stroke-linejoin:round;stroke-miterlimit:10;stroke-opacity:1;stroke-dasharray:2.8125, 4.6875;stroke-dashoffset:0"
       id="path3324" />
    <g
       id="g3326"
       transform="matrix(1.25,0,0,-1.25,273.35,368.81933)">
      <path
         inkscape:connector-curvature="0"
         d="M 0,0 192.24,0"
         style="fill:none;stroke:#000000;stroke-width:0.56199998;stroke-linecap:round;stroke-linejoin:round;stroke-miterlimit:10;stroke-opacity:1;stroke-dasharray:none"
         id="path3328" />
    </g>
    <g
       id="g3330"
       transform="matrix(1.25,0,0,-1.25,281.19625,367.43182)">
      <path
         inkscape:connector-curvature="0"
         d="M 0,0 -6.277,-1.11 0,-2.22 0,0 z"
         style="fill:#000000;fill-opacity:1;fill-rule:nonzero;stroke:#000000;stroke-width:0.56199998;stroke-linecap:round;stroke-linejoin:round;stroke-miterlimit:10;stroke-opacity:1;stroke-dasharray:none"
         id="path3332" />
    </g>
    <g
       id="g3334"
       transform="matrix(1.25,0,0,-1.25,505.80375,370.20683)">
      <path
         inkscape:connector-curvature="0"
         d="M 0,0 6.277,1.11 0,2.22 0,0 z"
         style="fill:#000000;fill-opacity:1;fill-rule:nonzero;stroke:#000000;stroke-width:0.56199998;stroke-linecap:round;stroke-linejoin:round;stroke-miterlimit:10;stroke-opacity:1;stroke-dasharray:none"
         id="path3336" />
    </g>
    <text
       style="font-size:15px"
       y="362.06931"
       x="373.24976"
       id="text3338">
      <tspan
         style="font-size:11.25px;font-variant:normal;font-weight:normal;writing-mode:lr-tb;fill:#000000;fill-opacity:1;fill-rule:nonzero;stroke:none;font-family:Courier 10 Pitch;-inkscape-font-specification:Courier"
         x="373.24976 379.99976 386.74976 393.49976 400.24976 406.99976"
         y="362.06931"
         sodipodi:role="line"
         id="tspan3340">pin[1]</tspan>
    </text>
  </g>
</svg>
