<?xml version="1.0" encoding="UTF-8"?><svg xmlns="http://www.w3.org/2000/svg" xmlns:xlink="http://www.w3.org/1999/xlink" fill-opacity="1" color-rendering="auto" color-interpolation="auto" text-rendering="auto" stroke="black" stroke-linecap="square" width="489" stroke-miterlimit="10" shape-rendering="auto" stroke-opacity="1" fill="black" stroke-dasharray="none" font-weight="normal" stroke-width="1" height="428" font-family="'Dialog'" font-style="normal" stroke-linejoin="miter" font-size="12" stroke-dashoffset="0" image-rendering="auto">
  <!--Generated by ySVG 2.5-->
  <defs id="genericDefs"/>
  <g>
    <defs id="defs1">
      <clipPath clipPathUnits="userSpaceOnUse" id="clipPath1">
        <path d="M0 0 L489 0 L489 428 L0 428 L0 0 Z"/>
      </clipPath>
      <clipPath clipPathUnits="userSpaceOnUse" id="clipPath2">
        <path d="M253 76 L742 76 L742 504 L253 504 L253 76 Z"/>
      </clipPath>
      <clipPath clipPathUnits="userSpaceOnUse" id="clipPath3">
        <path d="M193.7217 -55 L193.7217 434 L-234.2783 434 L-234.2783 -55 L193.7217 -55 Z"/>
      </clipPath>
      <clipPath clipPathUnits="userSpaceOnUse" id="clipPath4">
        <path d="M329.2217 -55 L329.2217 434 L-98.7783 434 L-98.7783 -55 L329.2217 -55 Z"/>
      </clipPath>
      <clipPath clipPathUnits="userSpaceOnUse" id="clipPath5">
        <path d="M260.9346 -20.7656 L260.9346 468.2344 L-167.0654 468.2344 L-167.0654 -20.7656 L260.9346 -20.7656 Z"/>
      </clipPath>
      <clipPath clipPathUnits="userSpaceOnUse" id="clipPath6">
        <path d="M261.9346 -450.2656 L261.9346 38.7344 L-166.0654 38.7344 L-166.0654 -450.2656 L261.9346 -450.2656 Z"/>
      </clipPath>
    </defs>
    <g fill="white" text-rendering="geometricPrecision" shape-rendering="geometricPrecision" transform="translate(-253,-76)" stroke="white">
      <rect x="253" width="489" height="428" y="76" clip-path="url(#clipPath2)" stroke="none"/>
    </g>
    <g fill="silver" text-rendering="geometricPrecision" shape-rendering="geometricPrecision" transform="matrix(1,0,0,1,-253,-76)" stroke="silver">
      <rect x="268" width="459" height="397" y="91.5" clip-path="url(#clipPath2)" stroke="none"/>
    </g>
    <g fill="rgb(236,245,255)" text-rendering="geometricPrecision" shape-rendering="geometricPrecision" transform="matrix(1,0,0,1,-253,-76)" stroke="rgb(236,245,255)">
      <path d="M305 127.5 L305 157.5 L690 157.5 L690 127.5 Z" stroke="none" clip-path="url(#clipPath2)"/>
      <rect x="305" width="385" height="295" y="157.5" clip-path="url(#clipPath2)" stroke="none"/>
      <rect x="329" y="157.5" clip-path="url(#clipPath2)" fill="rgb(113,146,178)" width="181" height="24" stroke="none"/>
      <rect x="510" y="157.5" clip-path="url(#clipPath2)" fill="rgb(113,146,178)" width="180" height="24" stroke="none"/>
      <rect x="305" y="181.5" clip-path="url(#clipPath2)" fill="rgb(196,215,237)" width="24" height="135.5" stroke="none"/>
      <rect x="329" y="181.5" clip-path="url(#clipPath2)" fill="rgb(196,215,237)" width="361" height="135.5" stroke="none"/>
      <rect x="305" y="317" clip-path="url(#clipPath2)" fill="rgb(171,200,226)" width="24" height="135.5" stroke="none"/>
      <rect x="329" y="317" clip-path="url(#clipPath2)" fill="rgb(171,200,226)" width="361" height="135.5" stroke="none"/>
    </g>
    <g text-rendering="geometricPrecision" stroke-miterlimit="1.45" shape-rendering="geometricPrecision" transform="matrix(1,0,0,1,-253,-76)" stroke-linecap="butt">
      <rect fill="none" x="305" width="385" height="325" y="127.5" clip-path="url(#clipPath2)"/>
      <rect fill="none" x="329" width="181" height="295" y="157.5" clip-path="url(#clipPath2)"/>
      <rect fill="none" x="510" width="180" height="295" y="157.5" clip-path="url(#clipPath2)"/>
      <rect fill="none" x="305" width="385" height="135.5" y="181.5" clip-path="url(#clipPath2)"/>
      <rect fill="none" x="305" width="385" height="135.5" y="317" clip-path="url(#clipPath2)"/>
    </g>
    <g text-rendering="geometricPrecision" stroke-miterlimit="1.45" shape-rendering="geometricPrecision" font-family="sans-serif" transform="matrix(-0,-1,1,-0,55,193.7217)" stroke-linecap="butt">
      <text x="2" xml:space="preserve" y="13.1387" clip-path="url(#clipPath3)" stroke="none">Row 1</text>
    </g>
    <g text-rendering="geometricPrecision" stroke-miterlimit="1.45" shape-rendering="geometricPrecision" font-family="sans-serif" transform="matrix(-0,-1,1,-0,55,329.2217)" stroke-linecap="butt">
      <text x="2" xml:space="preserve" y="13.1387" clip-path="url(#clipPath4)" stroke="none">Row 2</text>
    </g>
    <g text-rendering="geometricPrecision" stroke-miterlimit="1.45" shape-rendering="geometricPrecision" font-family="sans-serif" transform="matrix(1,0,0,1,-253,-76)" stroke-linecap="butt">
      <text x="390.7979" xml:space="preserve" y="173.6387" clip-path="url(#clipPath2)" stroke="none">Column 1</text>
      <text x="571.2979" xml:space="preserve" y="173.6387" clip-path="url(#clipPath2)" stroke="none">Column 2</text>
    </g>
    <g fill="silver" text-rendering="geometricPrecision" shape-rendering="geometricPrecision" transform="matrix(1,0,0,1,-253,-76)" stroke="silver">
      <rect x="345" width="149" height="104" y="197.25" clip-path="url(#clipPath2)" stroke="none"/>
    </g>
    <g text-rendering="geometricPrecision" stroke-miterlimit="1.45" shape-rendering="geometricPrecision" font-family="sans-serif" transform="matrix(1,0,0,1,-253,-76)" stroke-linecap="butt">
      <text x="360.7949" xml:space="preserve" y="253.4043" clip-path="url(#clipPath2)" stroke="none">Current Plot Region</text>
      <rect x="345" y="197.25" clip-path="url(#clipPath2)" fill="none" width="149" stroke-dasharray="6,2" height="104"/>
      <text x="353.2158" xml:space="preserve" y="193.1543" clip-path="url(#clipPath2)" stroke="none">Current Figure Region</text>
      <text x="458.5654" xml:space="preserve" y="110.6543" clip-path="url(#clipPath2)" stroke="none">Outer margin 3</text>
      <text x="451.5654" xml:space="preserve" y="471.6543" clip-path="url(#clipPath2)" stroke="none">Outer margin 1</text>
    </g>
    <g text-rendering="geometricPrecision" stroke-miterlimit="1.45" shape-rendering="geometricPrecision" font-family="sans-serif" transform="matrix(-0,-1,1,-0,20.7656,260.9346)" stroke-linecap="butt">
      <text x="2" xml:space="preserve" y="13.1387" clip-path="url(#clipPath5)" stroke="none">Outer margin 2</text>
    </g>
    <g text-rendering="geometricPrecision" stroke-miterlimit="1.45" shape-rendering="geometricPrecision" font-family="sans-serif" transform="matrix(-0,-1,1,-0,450.2656,261.9346)" stroke-linecap="butt">
      <text x="2" xml:space="preserve" y="13.1387" clip-path="url(#clipPath6)" stroke="none">Outer margin 4</text>
    </g>
  </g>
</svg>
