<?xml version="1.0" encoding="UTF-8"?><svg xmlns="http://www.w3.org/2000/svg" xmlns:xlink="http://www.w3.org/1999/xlink" fill-opacity="1" color-rendering="auto" color-interpolation="auto" text-rendering="auto" stroke="black" stroke-linecap="square" width="301" stroke-miterlimit="10" shape-rendering="auto" stroke-opacity="1" fill="black" stroke-dasharray="none" font-weight="normal" stroke-width="1" height="252" font-family="'Dialog'" font-style="normal" stroke-linejoin="miter" font-size="12" stroke-dashoffset="0" image-rendering="auto">
  <!--Generated by ySVG 2.5-->
  <defs id="genericDefs"/>
  <g>
    <defs id="defs1">
      <clipPath clipPathUnits="userSpaceOnUse" id="clipPath1">
        <path d="M0 0 L301 0 L301 252 L0 252 L0 0 Z"/>
      </clipPath>
      <clipPath clipPathUnits="userSpaceOnUse" id="clipPath2">
        <path d="M76 115 L377 115 L377 367 L76 367 L76 115 Z"/>
      </clipPath>
      <clipPath clipPathUnits="userSpaceOnUse" id="clipPath3">
        <path d="M129.4717 -18 L129.4717 283 L-122.5283 283 L-122.5283 -18 L129.4717 -18 Z"/>
      </clipPath>
      <clipPath clipPathUnits="userSpaceOnUse" id="clipPath4">
        <path d="M213.4717 -18 L213.4717 283 L-38.5283 283 L-38.5283 -18 L213.4717 -18 Z"/>
      </clipPath>
    </defs>
    <g fill="white" text-rendering="geometricPrecision" shape-rendering="geometricPrecision" transform="translate(-76,-115)" stroke="white">
      <rect x="76" width="301" height="252" y="115" clip-path="url(#clipPath2)" stroke="none"/>
    </g>
    <g fill="rgb(236,245,255)" text-rendering="geometricPrecision" shape-rendering="geometricPrecision" transform="matrix(1,0,0,1,-76,-115)" stroke="rgb(236,245,255)">
      <path d="M91 130 L91 160 L362 160 L362 130 Z" stroke="none" clip-path="url(#clipPath2)"/>
      <rect x="91" width="271" height="192" y="160" clip-path="url(#clipPath2)" stroke="none"/>
      <rect x="115" y="160" clip-path="url(#clipPath2)" fill="rgb(113,146,178)" width="120" height="24" stroke="none"/>
      <rect x="235" y="160" clip-path="url(#clipPath2)" fill="rgb(113,146,178)" width="127" height="24" stroke="none"/>
      <rect x="91" y="184" clip-path="url(#clipPath2)" fill="rgb(196,215,237)" width="24" height="80" stroke="none"/>
      <rect x="115" y="184" clip-path="url(#clipPath2)" fill="rgb(196,215,237)" width="247" height="80" stroke="none"/>
      <rect x="91" y="264" clip-path="url(#clipPath2)" fill="rgb(171,200,226)" width="24" height="88" stroke="none"/>
      <rect x="115" y="264" clip-path="url(#clipPath2)" fill="rgb(171,200,226)" width="247" height="88" stroke="none"/>
    </g>
    <g text-rendering="geometricPrecision" stroke-miterlimit="1.45" shape-rendering="geometricPrecision" transform="matrix(1,0,0,1,-76,-115)" stroke-linecap="butt">
      <rect fill="none" x="91" width="271" height="222" y="130" clip-path="url(#clipPath2)"/>
      <rect fill="none" x="115" width="120" height="192" y="160" clip-path="url(#clipPath2)"/>
      <rect fill="none" x="235" width="127" height="192" y="160" clip-path="url(#clipPath2)"/>
      <rect fill="none" x="91" width="271" height="80" y="184" clip-path="url(#clipPath2)"/>
      <rect fill="none" x="91" width="271" height="88" y="264" clip-path="url(#clipPath2)"/>
    </g>
    <g font-size="15" stroke-linecap="butt" transform="matrix(1,0,0,1,-76,-115)" text-rendering="geometricPrecision" font-family="sans-serif" shape-rendering="geometricPrecision" stroke-miterlimit="1.45">
      <text x="202.7476" xml:space="preserve" y="149.9233" clip-path="url(#clipPath2)" stroke="none">mfrow</text>
    </g>
    <g text-rendering="geometricPrecision" stroke-miterlimit="1.45" shape-rendering="geometricPrecision" font-family="sans-serif" transform="matrix(-0,-1,1,-0,18,129.4717)" stroke-linecap="butt">
      <text x="2" xml:space="preserve" y="13.1387" clip-path="url(#clipPath3)" stroke="none">Row 1</text>
    </g>
    <g text-rendering="geometricPrecision" stroke-miterlimit="1.45" shape-rendering="geometricPrecision" font-family="sans-serif" transform="matrix(-0,-1,1,-0,18,213.4717)" stroke-linecap="butt">
      <text x="2" xml:space="preserve" y="13.1387" clip-path="url(#clipPath4)" stroke="none">Row 2</text>
    </g>
    <g text-rendering="geometricPrecision" stroke-miterlimit="1.45" shape-rendering="geometricPrecision" font-family="sans-serif" transform="matrix(1,0,0,1,-76,-115)" stroke-linecap="butt">
      <text x="146.2979" xml:space="preserve" y="176.1387" clip-path="url(#clipPath2)" stroke="none">Column 1</text>
      <text x="269.7979" xml:space="preserve" y="176.1387" clip-path="url(#clipPath2)" stroke="none">Column 2</text>
    </g>
    <g text-rendering="geometricPrecision" stroke-miterlimit="1.45" shape-rendering="geometricPrecision" font-family="sans-serif" transform="matrix(1,0,0,1,-76,-115)" stroke-linecap="butt">
      <text x="157.9668" xml:space="preserve" y="229.1543" clip-path="url(#clipPath2)" stroke="none">Plot 1</text>
    </g>
    <g text-rendering="geometricPrecision" stroke-miterlimit="1.45" stroke-dasharray="6,2" shape-rendering="geometricPrecision" transform="matrix(1,0,0,1,-76,-115)" stroke-linecap="butt">
      <rect fill="none" x="131" width="88" height="48" y="201" clip-path="url(#clipPath2)"/>
      <text x="275.9668" y="229.1543" clip-path="url(#clipPath2)" font-family="sans-serif" stroke-dasharray="none" stroke="none" xml:space="preserve">Plot 2</text>
      <rect fill="none" x="249" width="88" height="48" y="201" clip-path="url(#clipPath2)"/>
      <text x="157.9668" y="307.1543" clip-path="url(#clipPath2)" font-family="sans-serif" stroke-dasharray="none" stroke="none" xml:space="preserve">Plot 3</text>
      <rect fill="none" x="131" width="88" height="48" y="279" clip-path="url(#clipPath2)"/>
      <text x="275.9668" y="307.1543" clip-path="url(#clipPath2)" font-family="sans-serif" stroke-dasharray="none" stroke="none" xml:space="preserve">Plot 4</text>
      <rect fill="none" x="249" width="88" height="48" y="279" clip-path="url(#clipPath2)"/>
      <path fill="none" stroke-dasharray="none" d="M219 225 L241 225" clip-path="url(#clipPath2)"/>
      <path stroke-dasharray="none" d="M249 225 L237 220 L240 225 L237 230 Z" clip-path="url(#clipPath2)" stroke="none"/>
      <path fill="none" stroke-dasharray="none" d="M249 245.918 L186.6421 275.5636" clip-path="url(#clipPath2)"/>
      <path stroke-dasharray="none" d="M179.417 278.9985 L192.4014 278.3618 L187.5452 275.1342 L188.1078 269.3305 Z" clip-path="url(#clipPath2)" stroke="none"/>
      <path fill="none" stroke-dasharray="none" d="M219 303 L241 303" clip-path="url(#clipPath2)"/>
      <path stroke-dasharray="none" d="M249 303 L237 298 L240 303 L237 308 Z" clip-path="url(#clipPath2)" stroke="none"/>
    </g>
  </g>
</svg>
