<?xml version="1.0" encoding="UTF-8"?><svg xmlns="http://www.w3.org/2000/svg" xmlns:xlink="http://www.w3.org/1999/xlink" fill-opacity="1" color-rendering="auto" color-interpolation="auto" text-rendering="auto" stroke="black" stroke-linecap="square" width="562" stroke-miterlimit="10" shape-rendering="auto" stroke-opacity="1" fill="black" stroke-dasharray="none" font-weight="normal" stroke-width="1" height="360" font-family="'Dialog'" font-style="normal" stroke-linejoin="miter" font-size="12" stroke-dashoffset="0" image-rendering="auto">
  <!--Generated by ySVG 2.5-->
  <defs id="genericDefs"/>
  <g>
    <defs id="defs1">
      <clipPath clipPathUnits="userSpaceOnUse" id="clipPath1">
        <path d="M0 0 L562 0 L562 360 L0 360 L0 0 Z"/>
      </clipPath>
      <clipPath clipPathUnits="userSpaceOnUse" id="clipPath2">
        <path d="M62 28 L624 28 L624 388 L62 388 L62 28 Z"/>
      </clipPath>
    </defs>
    <g fill="white" text-rendering="geometricPrecision" shape-rendering="geometricPrecision" transform="translate(-62,-28)" stroke="white">
      <rect x="62" width="562" height="360" y="28" clip-path="url(#clipPath2)" stroke="none"/>
    </g>
    <g text-rendering="geometricPrecision" stroke-miterlimit="1.45" stroke-dasharray="6,2" shape-rendering="geometricPrecision" transform="matrix(1,0,0,1,-62,-28)" stroke-linecap="butt">
      <rect x="167" y="43" clip-path="url(#clipPath2)" fill="none" width="442" rx="4" ry="4" height="60"/>
      <rect x="167" y="124" clip-path="url(#clipPath2)" fill="none" width="442" rx="4" ry="4" height="60"/>
      <rect x="167" y="313" clip-path="url(#clipPath2)" fill="none" width="442" rx="4" ry="4" height="60"/>
    </g>
    <g fill="silver" text-rendering="geometricPrecision" shape-rendering="geometricPrecision" transform="matrix(1,0,0,1,-62,-28)" stroke="silver">
      <rect x="399.5" y="58.5" clip-path="url(#clipPath2)" width="84" rx="4" ry="4" height="30" stroke="none"/>
    </g>
    <g text-rendering="geometricPrecision" stroke-miterlimit="1.45" shape-rendering="geometricPrecision" font-family="sans-serif" transform="matrix(1,0,0,1,-62,-28)" stroke-linecap="butt">
      <text x="422.7939" xml:space="preserve" y="77.6543" clip-path="url(#clipPath2)" stroke="none">lattice</text>
      <rect x="399.5" y="58.5" clip-path="url(#clipPath2)" fill="none" width="84" rx="4" ry="4" height="30" stroke-width="2"/>
      <text x="203.5439" xml:space="preserve" y="77.6543" clip-path="url(#clipPath2)" stroke="none">maps</text>
      <rect x="178" y="58.5" clip-path="url(#clipPath2)" fill="none" width="84" rx="4" ry="4" height="30"/>
      <text x="321.7783" xml:space="preserve" y="77.6543" clip-path="url(#clipPath2)" stroke="none">...</text>
      <rect x="285.5" y="58.5" clip-path="url(#clipPath2)" fill="none" width="84" rx="4" ry="4" height="30"/>
      <text x="549.7783" xml:space="preserve" y="77.6543" clip-path="url(#clipPath2)" stroke="none">...</text>
      <rect x="513.5" y="58.5" clip-path="url(#clipPath2)" fill="none" width="84" rx="4" ry="4" height="30"/>
    </g>
    <g fill="silver" text-rendering="geometricPrecision" shape-rendering="geometricPrecision" transform="matrix(1,0,0,1,-62,-28)" stroke="silver">
      <rect x="286" y="139" clip-path="url(#clipPath2)" width="84" rx="4" ry="4" height="30" stroke="none"/>
    </g>
    <g text-rendering="geometricPrecision" stroke-miterlimit="1.45" shape-rendering="geometricPrecision" font-family="sans-serif" transform="matrix(1,0,0,1,-62,-28)" stroke-linecap="butt">
      <text x="302.3447" xml:space="preserve" y="158.1543" clip-path="url(#clipPath2)" stroke="none">graphics</text>
      <rect x="286" y="139" clip-path="url(#clipPath2)" fill="none" width="84" rx="4" ry="4" height="30" stroke-width="2"/>
    </g>
    <g fill="silver" text-rendering="geometricPrecision" shape-rendering="geometricPrecision" transform="matrix(1,0,0,1,-62,-28)" stroke="silver">
      <rect x="400" y="139" clip-path="url(#clipPath2)" width="84" rx="4" ry="4" height="30" stroke="none"/>
    </g>
    <g text-rendering="geometricPrecision" stroke-miterlimit="1.45" shape-rendering="geometricPrecision" font-family="sans-serif" transform="matrix(1,0,0,1,-62,-28)" stroke-linecap="butt">
      <text x="430.249" xml:space="preserve" y="158.1543" clip-path="url(#clipPath2)" stroke="none">grid</text>
      <rect x="400" y="139" clip-path="url(#clipPath2)" fill="none" width="84" rx="4" ry="4" height="30" stroke-width="2"/>
    </g>
    <g fill="silver" text-rendering="geometricPrecision" shape-rendering="geometricPrecision" transform="matrix(1,0,0,1,-62,-28)" stroke="silver">
      <rect x="340" y="239" clip-path="url(#clipPath2)" width="84" rx="4" ry="4" height="30" stroke="none"/>
    </g>
    <g text-rendering="geometricPrecision" stroke-miterlimit="1.45" shape-rendering="geometricPrecision" font-family="sans-serif" transform="matrix(1,0,0,1,-62,-28)" stroke-linecap="butt">
      <text x="352.0791" xml:space="preserve" y="258.1543" clip-path="url(#clipPath2)" stroke="none">grDevices</text>
      <rect x="340" y="239" clip-path="url(#clipPath2)" fill="none" width="84" rx="4" ry="4" height="30" stroke-width="2"/>
      <text x="305.8447" xml:space="preserve" y="347.1543" clip-path="url(#clipPath2)" stroke="none">gtkDevice</text>
      <rect x="294" y="328" clip-path="url(#clipPath2)" fill="none" width="84" rx="4" ry="4" height="30"/>
      <text x="439.2783" xml:space="preserve" y="347.1543" clip-path="url(#clipPath2)" stroke="none">...</text>
      <rect x="403" y="328" clip-path="url(#clipPath2)" fill="none" width="84" rx="4" ry="4" height="30"/>
      <text x="81.3164" xml:space="preserve" y="70.6699" clip-path="url(#clipPath2)" font-weight="bold" stroke="none">Graphics</text>
      <text x="79.0225" xml:space="preserve" y="84.6387" clip-path="url(#clipPath2)" font-weight="bold" stroke="none">Packages</text>
      <text x="81.3164" xml:space="preserve" y="151.1699" clip-path="url(#clipPath2)" font-weight="bold" stroke="none">Graphics</text>
      <text x="82.4355" xml:space="preserve" y="165.1387" clip-path="url(#clipPath2)" font-weight="bold" stroke="none">Systems</text>
      <text x="81.3164" xml:space="preserve" y="237.2012" clip-path="url(#clipPath2)" font-weight="bold" stroke="none">Graphics</text>
      <text x="87.9375" xml:space="preserve" y="251.1699" clip-path="url(#clipPath2)" font-weight="bold" stroke="none">Engine</text>
      <text x="105.7676" xml:space="preserve" y="265.1387" clip-path="url(#clipPath2)" font-weight="bold" stroke="none">&amp;</text>
      <text x="84.7852" xml:space="preserve" y="279.1074" clip-path="url(#clipPath2)" font-weight="bold" stroke="none">Devices</text>
      <text x="81.3164" xml:space="preserve" y="333.1855" clip-path="url(#clipPath2)" font-weight="bold" stroke="none">Graphics</text>
      <text x="88.3564" xml:space="preserve" y="347.1543" clip-path="url(#clipPath2)" font-weight="bold" stroke="none">Device</text>
      <text x="79.0225" xml:space="preserve" y="361.123" clip-path="url(#clipPath2)" font-weight="bold" stroke="none">Packages</text>
      <text x="451.3682" xml:space="preserve" y="251.1699" clip-path="url(#clipPath2)" stroke="none">- handle colors and fonts</text>
      <text x="451.3682" xml:space="preserve" y="265.1387" clip-path="url(#clipPath2)" stroke="none">- different output formats</text>
      <path fill="none" d="M240.1182 88.4955 L301.4819 134.2342" clip-path="url(#clipPath2)"/>
      <path d="M307.8962 139.0152 L301.2629 127.8348 L300.6802 133.6366 L295.2867 135.8526 Z" clip-path="url(#clipPath2)" stroke="none"/>
      <path fill="none" d="M327.593 88.4758 L327.8571 130.9949" clip-path="url(#clipPath2)"/>
      <path d="M327.9068 138.9947 L332.8322 126.9639 L327.8509 129.9949 L322.8324 127.026 Z" clip-path="url(#clipPath2)" stroke="none"/>
      <path fill="none" d="M441.593 88.4758 L441.8571 130.9949" clip-path="url(#clipPath2)"/>
      <path d="M441.9068 138.9947 L446.8322 126.9639 L441.8509 129.9949 L436.8324 127.026 Z" clip-path="url(#clipPath2)" stroke="none"/>
      <path fill="none" d="M534.3573 88.4955 L469.653 134.3871" clip-path="url(#clipPath2)"/>
      <path d="M463.1276 139.0152 L475.8083 136.1514 L470.4687 133.8085 L470.0231 127.9946 Z" clip-path="url(#clipPath2)" stroke="none"/>
      <path fill="none" d="M336.1079 169.0146 L370.1094 231.9804" clip-path="url(#clipPath2)"/>
      <path d="M373.9106 239.0197 L372.6084 226.0851 L369.6343 231.1005 L363.8093 230.8365 Z" clip-path="url(#clipPath2)" stroke="none"/>
      <path fill="none" d="M432.9912 169.0146 L395.1042 232.1597" clip-path="url(#clipPath2)"/>
      <path d="M390.9882 239.0197 L401.4496 231.3022 L395.6187 231.3022 L392.8747 226.1573 Z" clip-path="url(#clipPath2)" stroke="none"/>
    </g>
  </g>
</svg>
