<?xml version="1.0" encoding="UTF-8"?><svg xmlns="http://www.w3.org/2000/svg" xmlns:xlink="http://www.w3.org/1999/xlink" fill-opacity="1" color-rendering="auto" color-interpolation="auto" text-rendering="auto" stroke="black" stroke-linecap="square" width="489" stroke-miterlimit="10" shape-rendering="auto" stroke-opacity="1" fill="black" stroke-dasharray="none" font-weight="normal" stroke-width="1" height="428" font-family="'Dialog'" font-style="normal" stroke-linejoin="miter" font-size="12" stroke-dashoffset="0" image-rendering="auto">
  <!--Generated by ySVG 2.5-->
  <defs id="genericDefs"/>
  <g>
    <defs id="defs1">
      <clipPath clipPathUnits="userSpaceOnUse" id="clipPath1">
        <path d="M0 0 L489 0 L489 428 L0 428 L0 0 Z"/>
      </clipPath>
      <clipPath clipPathUnits="userSpaceOnUse" id="clipPath2">
        <path d="M253 76 L742 76 L742 504 L253 504 L253 76 Z"/>
      </clipPath>
      <clipPath clipPathUnits="userSpaceOnUse" id="clipPath3">
        <path d="M260.9346 -28.2656 L260.9346 460.7344 L-167.0654 460.7344 L-167.0654 -28.2656 L260.9346 -28.2656 Z"/>
      </clipPath>
      <clipPath clipPathUnits="userSpaceOnUse" id="clipPath4">
        <path d="M261.9346 -442.7656 L261.9346 46.2344 L-166.0654 46.2344 L-166.0654 -442.7656 L261.9346 -442.7656 Z"/>
      </clipPath>
    </defs>
    <g fill="white" text-rendering="geometricPrecision" shape-rendering="geometricPrecision" transform="translate(-253,-76)" stroke="white">
      <rect x="253" width="489" height="428" y="76" clip-path="url(#clipPath2)" stroke="none"/>
    </g>
    <g fill="silver" text-rendering="geometricPrecision" shape-rendering="geometricPrecision" transform="matrix(1,0,0,1,-253,-76)" stroke="silver">
      <rect x="268" width="459" height="397" y="91.5" clip-path="url(#clipPath2)" stroke="none"/>
      <rect x="315" y="133" clip-path="url(#clipPath2)" fill="rgb(226,226,226)" width="365" height="314" stroke="none"/>
    </g>
    <g text-rendering="geometricPrecision" stroke-miterlimit="1.45" shape-rendering="geometricPrecision" transform="matrix(1,0,0,1,-253,-76)" stroke-linecap="butt">
      <rect fill="none" x="315" width="365" height="314" y="133" clip-path="url(#clipPath2)"/>
    </g>
    <g fill="silver" text-rendering="geometricPrecision" shape-rendering="geometricPrecision" transform="matrix(1,0,0,1,-253,-76)" stroke="silver">
      <rect x="360.5" width="275" height="228" y="176" clip-path="url(#clipPath2)" stroke="none"/>
    </g>
    <g text-rendering="geometricPrecision" stroke-miterlimit="1.45" shape-rendering="geometricPrecision" font-family="sans-serif" transform="matrix(1,0,0,1,-253,-76)" stroke-linecap="butt">
      <text x="463.9746" xml:space="preserve" y="294.1543" clip-path="url(#clipPath2)" stroke="none">Plot Region</text>
      <rect x="360.5" y="176" clip-path="url(#clipPath2)" fill="none" width="275" stroke-dasharray="6,2" height="228"/>
      <text x="462.8955" xml:space="preserve" y="158.1543" clip-path="url(#clipPath2)" stroke="none">Figure Region</text>
      <text x="458.5654" xml:space="preserve" y="116.6543" clip-path="url(#clipPath2)" stroke="none">Outer margin 3</text>
      <text x="451.5654" xml:space="preserve" y="471.6543" clip-path="url(#clipPath2)" stroke="none">Outer margin 1</text>
    </g>
    <g text-rendering="geometricPrecision" stroke-miterlimit="1.45" shape-rendering="geometricPrecision" font-family="sans-serif" transform="matrix(-0,-1,1,-0,28.2656,260.9346)" stroke-linecap="butt">
      <text x="2" xml:space="preserve" y="13.1387" clip-path="url(#clipPath3)" stroke="none">Outer margin 2</text>
    </g>
    <g text-rendering="geometricPrecision" stroke-miterlimit="1.45" shape-rendering="geometricPrecision" font-family="sans-serif" transform="matrix(-0,-1,1,-0,442.7656,261.9346)" stroke-linecap="butt">
      <text x="2" xml:space="preserve" y="13.1387" clip-path="url(#clipPath4)" stroke="none">Outer margin 4</text>
    </g>
  </g>
</svg>
